G04 #@! TF.GenerationSoftware,KiCad,Pcbnew,(5.1.0)-1*
G04 #@! TF.CreationDate,2019-04-15T16:33:43-05:00*
G04 #@! TF.ProjectId,rfm95-breakout,72666d39-352d-4627-9265-616b6f75742e,rev?*
G04 #@! TF.SameCoordinates,Original*
G04 #@! TF.FileFunction,Copper,L2,Bot*
G04 #@! TF.FilePolarity,Positive*
%FSLAX46Y46*%
G04 Gerber Fmt 4.6, Leading zero omitted, Abs format (unit mm)*
G04 Created by KiCad (PCBNEW (5.1.0)-1) date 2019-04-15 16:33:43*
%MOMM*%
%LPD*%
G04 APERTURE LIST*
%ADD10R,1.700000X1.700000*%
%ADD11O,1.700000X1.700000*%
%ADD12C,0.914400*%
%ADD13C,0.254000*%
G04 APERTURE END LIST*
D10*
X127000000Y-76200000D03*
D11*
X127000000Y-78740000D03*
X127000000Y-81280000D03*
X127000000Y-83820000D03*
X127000000Y-86360000D03*
X127000000Y-88900000D03*
X127000000Y-91440000D03*
D10*
X149860000Y-88900000D03*
D11*
X149860000Y-86360000D03*
X149860000Y-83820000D03*
X149860000Y-81280000D03*
X149860000Y-78740000D03*
X149860000Y-76200000D03*
D10*
X148590000Y-91440000D03*
D12*
X147828000Y-88900000D03*
X129032000Y-75946000D03*
D13*
G36*
X148481401Y-75628966D02*
G01*
X148396487Y-75908889D01*
X148367815Y-76200000D01*
X148396487Y-76491111D01*
X148481401Y-76771034D01*
X148619294Y-77029014D01*
X148804866Y-77255134D01*
X149030986Y-77440706D01*
X149085791Y-77470000D01*
X149030986Y-77499294D01*
X148804866Y-77684866D01*
X148619294Y-77910986D01*
X148481401Y-78168966D01*
X148396487Y-78448889D01*
X148367815Y-78740000D01*
X148396487Y-79031111D01*
X148481401Y-79311034D01*
X148619294Y-79569014D01*
X148804866Y-79795134D01*
X149030986Y-79980706D01*
X149085791Y-80010000D01*
X149030986Y-80039294D01*
X148804866Y-80224866D01*
X148619294Y-80450986D01*
X148481401Y-80708966D01*
X148396487Y-80988889D01*
X148367815Y-81280000D01*
X148396487Y-81571111D01*
X148481401Y-81851034D01*
X148619294Y-82109014D01*
X148804866Y-82335134D01*
X149030986Y-82520706D01*
X149085791Y-82550000D01*
X149030986Y-82579294D01*
X148804866Y-82764866D01*
X148619294Y-82990986D01*
X148481401Y-83248966D01*
X148396487Y-83528889D01*
X148367815Y-83820000D01*
X148396487Y-84111111D01*
X148481401Y-84391034D01*
X148619294Y-84649014D01*
X148804866Y-84875134D01*
X149030986Y-85060706D01*
X149085791Y-85090000D01*
X149030986Y-85119294D01*
X148804866Y-85304866D01*
X148619294Y-85530986D01*
X148481401Y-85788966D01*
X148396487Y-86068889D01*
X148367815Y-86360000D01*
X148396487Y-86651111D01*
X148481401Y-86931034D01*
X148619294Y-87189014D01*
X148804866Y-87415134D01*
X148834687Y-87439607D01*
X148765820Y-87460498D01*
X148655506Y-87519463D01*
X148558815Y-87598815D01*
X148479463Y-87695506D01*
X148420498Y-87805820D01*
X148384188Y-87925518D01*
X148371928Y-88050000D01*
X148371928Y-89750000D01*
X148384188Y-89874482D01*
X148407681Y-89951928D01*
X147740000Y-89951928D01*
X147615518Y-89964188D01*
X147495820Y-90000498D01*
X147385506Y-90059463D01*
X147288815Y-90138815D01*
X147209463Y-90235506D01*
X147150498Y-90345820D01*
X147114188Y-90465518D01*
X147101928Y-90590000D01*
X147101928Y-92050000D01*
X128346383Y-92050000D01*
X128396825Y-91944099D01*
X128441476Y-91796890D01*
X128320155Y-91567000D01*
X127127000Y-91567000D01*
X127127000Y-91587000D01*
X126873000Y-91587000D01*
X126873000Y-91567000D01*
X126853000Y-91567000D01*
X126853000Y-91313000D01*
X126873000Y-91313000D01*
X126873000Y-91293000D01*
X127127000Y-91293000D01*
X127127000Y-91313000D01*
X128320155Y-91313000D01*
X128441476Y-91083110D01*
X128396825Y-90935901D01*
X128271641Y-90673080D01*
X128097588Y-90439731D01*
X127881355Y-90244822D01*
X127764477Y-90175201D01*
X127829014Y-90140706D01*
X128055134Y-89955134D01*
X128240706Y-89729014D01*
X128378599Y-89471034D01*
X128463513Y-89191111D01*
X128492185Y-88900000D01*
X128463513Y-88608889D01*
X128378599Y-88328966D01*
X128240706Y-88070986D01*
X128055134Y-87844866D01*
X127829014Y-87659294D01*
X127774209Y-87630000D01*
X127829014Y-87600706D01*
X128055134Y-87415134D01*
X128240706Y-87189014D01*
X128378599Y-86931034D01*
X128463513Y-86651111D01*
X128492185Y-86360000D01*
X128463513Y-86068889D01*
X128378599Y-85788966D01*
X128240706Y-85530986D01*
X128055134Y-85304866D01*
X127829014Y-85119294D01*
X127774209Y-85090000D01*
X127829014Y-85060706D01*
X128055134Y-84875134D01*
X128240706Y-84649014D01*
X128378599Y-84391034D01*
X128463513Y-84111111D01*
X128492185Y-83820000D01*
X128463513Y-83528889D01*
X128378599Y-83248966D01*
X128240706Y-82990986D01*
X128055134Y-82764866D01*
X127829014Y-82579294D01*
X127774209Y-82550000D01*
X127829014Y-82520706D01*
X128055134Y-82335134D01*
X128240706Y-82109014D01*
X128378599Y-81851034D01*
X128463513Y-81571111D01*
X128492185Y-81280000D01*
X128463513Y-80988889D01*
X128378599Y-80708966D01*
X128240706Y-80450986D01*
X128055134Y-80224866D01*
X127829014Y-80039294D01*
X127774209Y-80010000D01*
X127829014Y-79980706D01*
X128055134Y-79795134D01*
X128240706Y-79569014D01*
X128378599Y-79311034D01*
X128463513Y-79031111D01*
X128492185Y-78740000D01*
X128463513Y-78448889D01*
X128378599Y-78168966D01*
X128240706Y-77910986D01*
X128055134Y-77684866D01*
X128025313Y-77660393D01*
X128094180Y-77639502D01*
X128204494Y-77580537D01*
X128301185Y-77501185D01*
X128380537Y-77404494D01*
X128439502Y-77294180D01*
X128475812Y-77174482D01*
X128488072Y-77050000D01*
X128488072Y-75590000D01*
X148502229Y-75590000D01*
X148481401Y-75628966D01*
X148481401Y-75628966D01*
G37*
X148481401Y-75628966D02*
X148396487Y-75908889D01*
X148367815Y-76200000D01*
X148396487Y-76491111D01*
X148481401Y-76771034D01*
X148619294Y-77029014D01*
X148804866Y-77255134D01*
X149030986Y-77440706D01*
X149085791Y-77470000D01*
X149030986Y-77499294D01*
X148804866Y-77684866D01*
X148619294Y-77910986D01*
X148481401Y-78168966D01*
X148396487Y-78448889D01*
X148367815Y-78740000D01*
X148396487Y-79031111D01*
X148481401Y-79311034D01*
X148619294Y-79569014D01*
X148804866Y-79795134D01*
X149030986Y-79980706D01*
X149085791Y-80010000D01*
X149030986Y-80039294D01*
X148804866Y-80224866D01*
X148619294Y-80450986D01*
X148481401Y-80708966D01*
X148396487Y-80988889D01*
X148367815Y-81280000D01*
X148396487Y-81571111D01*
X148481401Y-81851034D01*
X148619294Y-82109014D01*
X148804866Y-82335134D01*
X149030986Y-82520706D01*
X149085791Y-82550000D01*
X149030986Y-82579294D01*
X148804866Y-82764866D01*
X148619294Y-82990986D01*
X148481401Y-83248966D01*
X148396487Y-83528889D01*
X148367815Y-83820000D01*
X148396487Y-84111111D01*
X148481401Y-84391034D01*
X148619294Y-84649014D01*
X148804866Y-84875134D01*
X149030986Y-85060706D01*
X149085791Y-85090000D01*
X149030986Y-85119294D01*
X148804866Y-85304866D01*
X148619294Y-85530986D01*
X148481401Y-85788966D01*
X148396487Y-86068889D01*
X148367815Y-86360000D01*
X148396487Y-86651111D01*
X148481401Y-86931034D01*
X148619294Y-87189014D01*
X148804866Y-87415134D01*
X148834687Y-87439607D01*
X148765820Y-87460498D01*
X148655506Y-87519463D01*
X148558815Y-87598815D01*
X148479463Y-87695506D01*
X148420498Y-87805820D01*
X148384188Y-87925518D01*
X148371928Y-88050000D01*
X148371928Y-89750000D01*
X148384188Y-89874482D01*
X148407681Y-89951928D01*
X147740000Y-89951928D01*
X147615518Y-89964188D01*
X147495820Y-90000498D01*
X147385506Y-90059463D01*
X147288815Y-90138815D01*
X147209463Y-90235506D01*
X147150498Y-90345820D01*
X147114188Y-90465518D01*
X147101928Y-90590000D01*
X147101928Y-92050000D01*
X128346383Y-92050000D01*
X128396825Y-91944099D01*
X128441476Y-91796890D01*
X128320155Y-91567000D01*
X127127000Y-91567000D01*
X127127000Y-91587000D01*
X126873000Y-91587000D01*
X126873000Y-91567000D01*
X126853000Y-91567000D01*
X126853000Y-91313000D01*
X126873000Y-91313000D01*
X126873000Y-91293000D01*
X127127000Y-91293000D01*
X127127000Y-91313000D01*
X128320155Y-91313000D01*
X128441476Y-91083110D01*
X128396825Y-90935901D01*
X128271641Y-90673080D01*
X128097588Y-90439731D01*
X127881355Y-90244822D01*
X127764477Y-90175201D01*
X127829014Y-90140706D01*
X128055134Y-89955134D01*
X128240706Y-89729014D01*
X128378599Y-89471034D01*
X128463513Y-89191111D01*
X128492185Y-88900000D01*
X128463513Y-88608889D01*
X128378599Y-88328966D01*
X128240706Y-88070986D01*
X128055134Y-87844866D01*
X127829014Y-87659294D01*
X127774209Y-87630000D01*
X127829014Y-87600706D01*
X128055134Y-87415134D01*
X128240706Y-87189014D01*
X128378599Y-86931034D01*
X128463513Y-86651111D01*
X128492185Y-86360000D01*
X128463513Y-86068889D01*
X128378599Y-85788966D01*
X128240706Y-85530986D01*
X128055134Y-85304866D01*
X127829014Y-85119294D01*
X127774209Y-85090000D01*
X127829014Y-85060706D01*
X128055134Y-84875134D01*
X128240706Y-84649014D01*
X128378599Y-84391034D01*
X128463513Y-84111111D01*
X128492185Y-83820000D01*
X128463513Y-83528889D01*
X128378599Y-83248966D01*
X128240706Y-82990986D01*
X128055134Y-82764866D01*
X127829014Y-82579294D01*
X127774209Y-82550000D01*
X127829014Y-82520706D01*
X128055134Y-82335134D01*
X128240706Y-82109014D01*
X128378599Y-81851034D01*
X128463513Y-81571111D01*
X128492185Y-81280000D01*
X128463513Y-80988889D01*
X128378599Y-80708966D01*
X128240706Y-80450986D01*
X128055134Y-80224866D01*
X127829014Y-80039294D01*
X127774209Y-80010000D01*
X127829014Y-79980706D01*
X128055134Y-79795134D01*
X128240706Y-79569014D01*
X128378599Y-79311034D01*
X128463513Y-79031111D01*
X128492185Y-78740000D01*
X128463513Y-78448889D01*
X128378599Y-78168966D01*
X128240706Y-77910986D01*
X128055134Y-77684866D01*
X128025313Y-77660393D01*
X128094180Y-77639502D01*
X128204494Y-77580537D01*
X128301185Y-77501185D01*
X128380537Y-77404494D01*
X128439502Y-77294180D01*
X128475812Y-77174482D01*
X128488072Y-77050000D01*
X128488072Y-75590000D01*
X148502229Y-75590000D01*
X148481401Y-75628966D01*
M02*
